# xmcd
#
# Track frame offsets:
#	183
#	13625
#	24708
#	35208
#	45633
#	58458
#	70263
#	80583
#	91158
#	103908
#	116838
#	128333
#	139183
#	152583
#	162858
#	174633
#	185978
#	196308
#	208008
#	219670
#
# Disc length: 3091 seconds
#
# Revision: 8
# Processed by: cddbd v1.5.1PL2 Copyright (c) Steve Scherf et al.
# Submitted via: audiograbber 1.83.01
#
DISCID=2b0c1114
DTITLE=Robert Johnson - Dejavu Retro Gold Collection CD 2
DYEAR=2001
DGENRE=Blues
TTITLE0=I Believe I'll Dust My Broom
TTITLE1=Drunken Hearted Man 1
TTITLE2=Drunken Hearted Man 2
TTITLE3=Malted Milk
TTITLE4=Come On In My Kitchen 1
TTITLE5=Come On In My Kitchen 2
TTITLE6=Milkcow´s Calf Blues 1
TTITLE7=Milkcow´s Calf Blues 2
TTITLE8=Travelling Riverside Blues
TTITLE9=Kindhearted Woman Blues 1
TTITLE10=Kindhearted Woman Blues 2
TTITLE11=From Four Till Late
TTITLE12=They´re Red Hot
TTITLE13=Stop Breakin´ Down Blues
TTITLE14=Hellhound On My Trail
TTITLE15=Dead Shrimp Blues
TTITLE16=Honeymoon Blues
TTITLE17=I´m A Steady Rollin´ Man
TTITLE18=If I Had Possession Over Judgement Day
TTITLE19=Last Fair Deal Gone Down
EXTD=
EXTT0=
EXTT1=
EXTT2=
EXTT3=
EXTT4=
EXTT5=
EXTT6=
EXTT7=
EXTT8=
EXTT9=
EXTT10=
EXTT11=
EXTT12=
EXTT13=
EXTT14=
EXTT15=
EXTT16=
EXTT17=
EXTT18=
EXTT19=
PLAYORDER=
